<svg width="25" height="24" viewBox="0 0 25 24" fill="none" xmlns="http://www.w3.org/2000/svg">
<path d="M4.5 4H7.5L9.5 2H15.5L17.5 4H20.5C21.0304 4 21.5391 4.21071 21.9142 4.58579C22.2893 4.96086 22.5 5.46957 22.5 6V18C22.5 18.5304 22.2893 19.0391 21.9142 19.4142C21.5391 19.7893 21.0304 20 20.5 20H4.5C3.96957 20 3.46086 19.7893 3.08579 19.4142C2.71071 19.0391 2.5 18.5304 2.5 18V6C2.5 5.46957 2.71071 4.96086 3.08579 4.58579C3.46086 4.21071 3.96957 4 4.5 4ZM12.5 7C11.1739 7 9.90215 7.52678 8.96447 8.46447C8.02678 9.40215 7.5 10.6739 7.5 12C7.5 13.3261 8.02678 14.5979 8.96447 15.5355C9.90215 16.4732 11.1739 17 12.5 17C13.8261 17 15.0979 16.4732 16.0355 15.5355C16.9732 14.5979 17.5 13.3261 17.5 12C17.5 10.6739 16.9732 9.40215 16.0355 8.46447C15.0979 7.52678 13.8261 7 12.5 7ZM12.5 9C13.2956 9 14.0587 9.31607 14.6213 9.87868C15.1839 10.4413 15.5 11.2044 15.5 12C15.5 12.7956 15.1839 13.5587 14.6213 14.1213C14.0587 14.6839 13.2956 15 12.5 15C11.7044 15 10.9413 14.6839 10.3787 14.1213C9.81607 13.5587 9.5 12.7956 9.5 12C9.5 11.2044 9.81607 10.4413 10.3787 9.87868C10.9413 9.31607 11.7044 9 12.5 9Z" fill="black"/>
</svg>
