<svg width="25" height="24" viewBox="0 0 25 24" fill="none" xmlns="http://www.w3.org/2000/svg">
<path d="M20.8767 4.63L19.5367 3.29C19.1667 2.9 18.5167 2.9 18.1267 3.29L9.16669 12.25L11.9167 15L20.8767 6.04C21.2667 5.65 21.2667 5 20.8767 4.63ZM7.16669 14C6.37104 14 5.60798 14.3161 5.04537 14.8787C4.48276 15.4413 4.16669 16.2043 4.16669 17C4.16669 18.31 3.00669 19 2.16669 19C3.08669 20.22 4.66669 21 6.16669 21C7.22755 21 8.24497 20.5786 8.99511 19.8284C9.74526 19.0783 10.1667 18.0609 10.1667 17C10.1667 16.2043 9.85062 15.4413 9.28801 14.8787C8.7254 14.3161 7.96234 14 7.16669 14Z" fill="black"/>
</svg>
