<svg width="141" height="44" viewBox="0 0 141 44" fill="none" xmlns="http://www.w3.org/2000/svg">
<path fill-rule="evenodd" clip-rule="evenodd" d="M24 19.6V29.2C24 31.851 21.851 34 19.2 34H9.6V26.8H4.8L4.8 34C2.14903 34 0 31.851 0 29.2V19.6C0 18.2745 1.07452 17.2 2.4 17.2H7.2C5.87452 17.2 4.8 16.1255 4.8 14.8V12.4C4.8 11.0745 5.87452 10 7.2 10H16.8C18.1255 10 19.2 11.0745 19.2 12.4V14.8C19.2 16.1255 18.1255 17.2 16.8 17.2H21.6C22.9255 17.2 24 18.2745 24 19.6ZM7.2 24.4C8.52548 24.4 9.6 23.3255 9.6 22C9.6 20.6745 8.52548 19.6 7.2 19.6C5.87452 19.6 4.8 20.6745 4.8 22C4.8 23.3255 5.87452 24.4 7.2 24.4Z" fill="black"/>
<path d="M41.3097 8.81818H34.9815V35H41.3097V8.81818ZM49.3737 23.8011C49.3865 21.5639 50.6905 20.2344 52.672 20.2344C54.6536 20.2344 55.8297 21.5384 55.8169 23.7116V35H62.0683V22.4844C62.0811 18.0611 59.3837 15.108 55.2544 15.108C52.3524 15.108 50.1536 16.5781 49.2842 18.9688H49.0669V15.3636H43.1223V35H49.3737V23.8011ZM63.7787 35H70.0301V29.1065L71.2958 27.5724L75.9747 35H83.1978L75.9492 23.9162L82.9165 15.3636H75.8341L70.3114 22.3949H70.0301V8.81818H63.7787V35ZM93.6301 8.81818V26.9205C93.6173 29.1832 92.6201 30.3722 90.8048 30.3722C89.0662 30.3722 88.0051 29.2599 87.9412 27.2273H81.6386C81.613 32.8651 85.5505 35.358 90.4468 35.358C95.9951 35.358 99.8559 32.0213 99.8687 26.9205V8.81818H93.6301ZM107.217 35.3324C109.953 35.3324 111.845 34.2713 112.919 32.2642H113.072V35H118.953V21.6534C118.953 17.4986 115.258 15.108 110.26 15.108C104.98 15.108 101.988 17.767 101.49 21.3466L107.255 21.5511C107.524 20.2983 108.559 19.5312 110.208 19.5312C111.742 19.5312 112.714 20.2727 112.714 21.5895V21.6534C112.714 22.8551 111.41 23.1108 108.061 23.4048C104.085 23.7372 100.761 25.2074 100.761 29.554C100.761 33.4403 103.458 35.3324 107.217 35.3324ZM109.147 31.2415C107.703 31.2415 106.68 30.5511 106.68 29.2472C106.68 27.9815 107.677 27.2145 109.454 26.946C110.617 26.7798 112.049 26.5241 112.752 26.1534V28.0199C112.752 29.9375 111.142 31.2415 109.147 31.2415ZM120.615 35H126.867V24.3381C126.867 21.9986 128.528 20.4261 130.766 20.4261C131.507 20.4261 132.619 20.554 133.22 20.7585V15.3253C132.696 15.1847 132.044 15.0952 131.469 15.0952C129.321 15.0952 127.608 16.348 126.892 18.9432H126.688V15.3636H120.615V35ZM134.873 35.3707C136.625 35.3707 138.171 33.8878 138.197 32.0469C138.171 30.2315 136.625 28.7614 134.873 28.7614C133.032 28.7614 131.524 30.2315 131.549 32.0469C131.524 33.8878 133.032 35.3707 134.873 35.3707Z" fill="black"/>
</svg>
